<?xml version="1.0" encoding="UTF-8" standalone="no"?>
<!-- Created with Inkscape (http://www.inkscape.org/) -->

<svg
   width="207.21696mm"
   height="94.822929mm"
   viewBox="0 0 207.21696 94.822929"
   version="1.1"
   id="svg5"
   inkscape:version="1.1 (c68e22c387, 2021-05-23)"
   sodipodi:docname="darios-wordmark.svg"
   xmlns:inkscape="http://www.inkscape.org/namespaces/inkscape"
   xmlns:sodipodi="http://sodipodi.sourceforge.net/DTD/sodipodi-0.dtd"
   xmlns="http://www.w3.org/2000/svg"
   xmlns:svg="http://www.w3.org/2000/svg">
  <sodipodi:namedview
     id="namedview7"
     pagecolor="#959090"
     bordercolor="#666666"
     borderopacity="1.0"
     inkscape:pageshadow="2"
     inkscape:pageopacity="0"
     inkscape:pagecheckerboard="0"
     inkscape:document-units="mm"
     showgrid="false"
     inkscape:zoom="0.71446409"
     inkscape:cx="479.38029"
     inkscape:cy="255.43621"
     inkscape:window-width="1920"
     inkscape:window-height="1009"
     inkscape:window-x="-8"
     inkscape:window-y="-8"
     inkscape:window-maximized="1"
     inkscape:current-layer="g2355" />
  <defs
     id="defs2">
    <filter
       style="color-interpolation-filters:sRGB"
       inkscape:label="Blur"
       id="filter3374"
       x="-0.014728597"
       y="-0.03356487"
       width="1.0295469"
       height="1.0671297">
      <feGaussianBlur
         stdDeviation="0.5 0.5"
         result="blur"
         id="feGaussianBlur3372" />
    </filter>
    <clipPath
       clipPathUnits="userSpaceOnUse"
       id="clipPath2070">
      <path
         d="m 4894.87,13292.8 c -2.65,0.8 -5.47,1.7 -8.05,2.4 l 0.79,-2.4 z"
         id="path2068" />
    </clipPath>
    <linearGradient
       x1="0"
       y1="0"
       x2="1"
       y2="0"
       gradientUnits="userSpaceOnUse"
       gradientTransform="matrix(8.04688,0,0,-8.04688,4886.82,13294)"
       spreadMethod="pad"
       id="linearGradient2082">
      <stop
         style="stop-opacity:1;stop-color:#1a1d40"
         offset="0"
         id="stop2072" />
      <stop
         style="stop-opacity:1;stop-color:#1a1d40"
         offset="0.252747"
         id="stop2074" />
      <stop
         style="stop-opacity:1;stop-color:#161721"
         offset="0.598901"
         id="stop2076" />
      <stop
         style="stop-opacity:1;stop-color:#283779"
         offset="0.906593"
         id="stop2078" />
      <stop
         style="stop-opacity:1;stop-color:#1f2144"
         offset="1"
         id="stop2080" />
    </linearGradient>
    <clipPath
       clipPathUnits="userSpaceOnUse"
       id="clipPath2048">
      <path
         d="m 6559.67,12860 c -16.62,0 -33.36,1.4 -49.9,4.5 l 2.91,-4.5 z"
         id="path2046" />
    </clipPath>
    <linearGradient
       x1="0"
       y1="0"
       x2="1"
       y2="0"
       gradientUnits="userSpaceOnUse"
       gradientTransform="matrix(49.8975,0,0,-49.8975,6509.77,12862.3)"
       spreadMethod="pad"
       id="linearGradient2060">
      <stop
         style="stop-opacity:1;stop-color:#1a1d40"
         offset="0"
         id="stop2050" />
      <stop
         style="stop-opacity:1;stop-color:#1a1d40"
         offset="0.252747"
         id="stop2052" />
      <stop
         style="stop-opacity:1;stop-color:#161721"
         offset="0.598901"
         id="stop2054" />
      <stop
         style="stop-opacity:1;stop-color:#283779"
         offset="0.906593"
         id="stop2056" />
      <stop
         style="stop-opacity:1;stop-color:#1f2144"
         offset="1"
         id="stop2058" />
    </linearGradient>
    <clipPath
       clipPathUnits="userSpaceOnUse"
       id="clipPath2026">
      <path
         d="m 7593.24,10520 h 183.45 l -148.36,-92.8 56.55,-166.3 -148.41,111.6 -148.38,-105.8 56.78,159.6 -148.37,93.7 h 183.21 l 33.63,117.1 23.13,72.3 23.13,-72.9 z m 635.44,-630.6 -125.08,90.6 h -0.67 l -22.88,16.6 -22.85,-16.6 h -0.68 l -124.88,-90.6 29.49,90.6 h 0.17 l 27.13,107.8 -148.36,132.2 h 183.45 l 56.53,174.4 57.01,-174.4 h 183.22 l -148.13,-132.2 27,-107.8 h 0.17 z M 7023.21,9980 h -0.63 l -22.87,16.6 -22.85,-16.6 h -0.65 l -124.86,-90.6 29.38,90.6 h 0.16 l 26.99,107.8 -148.39,132.2 h 183.47 l 56.75,174.4 56.78,-174.4 h 183.49 l -148.38,-132.2 26.99,-107.8 h 0.17 l 29.32,-90.6 z m -1080.55,0 h -0.64 l -22.86,16.6 -22.86,-16.6 h -0.63 l -124.87,-90.6 29.51,90.6 h 0.16 l 27.1,107.8 -148.41,132.2 h 183.22 l 56.78,174.4 56.77,-174.4 h 183.46 l -148.38,-132.2 27,-107.8 h 0.17 l 29.37,-90.6 z m -1080.53,0 h -0.67 l -22.85,16.6 -22.88,-16.6 h -0.67 l -125.09,-90.6 29.62,90.6 h 0.18 l 27.24,107.8 -148.66,132.2 h 183.73 l 56.53,174.4 56.76,-174.4 h 183.47 l -148.65,-132.2 27.14,-107.8 h 0.17 l 29.5,-90.6 z m -567.33,730.5 23.23,-73.4 33.78,-117.1 h 183.2 l -148.13,-92.8 56.51,-166.3 -148.59,111.6 -148.4,-105.8 56.78,159.6 -148.38,93.7 h 183.45 l 33.49,117.1 z m -56.55,579.5 56.55,174.5 57.01,-174.5 h 172.51 l -137.44,-88.4 56.51,-168.5 -148.59,110.6 -148.4,-106.1 56.78,163.3 -137.68,89.1 z m 897.14,840 h 183.2 l 57.01,174 56.5,-174 h 183.5 l -148.39,-139.8 3.48,-39.9 53.05,-152 -148.14,113.4 -148.63,-117.6 53.07,153.9 3.48,42.3 z m -296.78,568.8 12.85,-38.8 43.91,-160 h 183.47 l -148.65,-108.5 56.81,-175.3 -148.39,108 -148.64,-108.3 57.04,175.7 -148.66,108.4 h 183.73 l 43.74,160 z m 479.98,191.2 57.01,174.4 56.5,-174.4 h 183.5 l -148.39,-108.3 39.47,-119.2 17.06,-54.2 -72.38,51.9 -75.76,54.6 -76.01,-55.2 -72.62,-52.7 17.07,52.5 39.48,122.4 -148.13,108.2 z m 600.57,-191.2 12.83,-38.8 43.94,-160 h 183.46 l -148.38,-108.5 56.54,-175.3 -148.39,108 -148.36,-108.3 56.77,175.7 -148.41,108.4 h 183.22 l 43.94,160 z m 480.22,-568.8 56.53,174 56.77,-174 h 183.46 l -148.38,-139.8 3.5,-39.9 53.28,-152 -148.63,113.4 -148.62,-117.6 53.53,153.9 3.53,42.3 -148.66,139.7 z m 600.33,568.8 12.83,-38.8 43.95,-160 h 183.49 l -148.38,-108.5 56.48,-175.3 -148.37,108 -148.36,-108.3 56.53,175.7 -148.39,108.4 h 183.47 l 43.91,160 z m 480,-568.8 56.76,174 56.77,-174 h 183.45 l -148.36,-139.8 3.48,-39.9 53.07,-152 -148.41,113.4 -148.38,-117.6 53.25,153.9 3.53,42.3 -148.37,139.7 z m 748.97,-684.6 -148.63,108 -148.41,-108.3 56.79,176 -148.36,108.9 h 183.45 l 56.53,174.4 57.01,-174.4 h 183.22 l -148.13,-108.9 z m -3241.68,-767 -148.39,105.8 -148.64,-108.7 57.04,170.2 -148.66,104.3 h 183.73 l 56.53,174.4 56.76,-174.4 h 183.47 l -148.65,-104.8 z m 536.74,358.4 -148.14,108.8 -148.63,-107.1 56.55,162.8 -137.44,88.7 h 172.51 l 57.01,174.5 56.5,-174.5 h 172.79 l -137.68,-88.4 z m 543.81,408.6 -148.39,108 -148.36,-108.3 56.77,176 -148.41,108.9 h 183.22 l 56.78,174.4 56.77,-174.4 h 183.46 l -148.38,-108.9 z m 0,-767 -148.39,105.8 -148.36,-108.7 56.77,170.2 -148.41,104.3 h 183.22 l 56.78,174.4 56.77,-174.4 h 183.46 l -148.38,-104.8 z m 536.99,358.4 -148.63,108.8 -148.62,-107.1 57.06,162.8 -137.93,88.7 h 172.96 l 56.53,174.5 56.77,-174.5 h 172.76 l -137.68,-88.4 z m 543.54,408.6 -148.37,108 -148.36,-108.3 56.53,176 -148.39,108.9 h 183.47 l 56.75,174.4 56.78,-174.4 h 183.49 l -148.38,-108.9 z m 0,-767 -148.37,105.8 -148.36,-108.7 56.53,170.2 -148.39,104.3 h 183.47 l 56.75,174.4 56.78,-174.4 h 183.49 l -148.38,-104.8 z m -2161.08,767 -148.39,108 -148.64,-108.3 57.04,176 -148.66,108.9 h 183.73 l 56.53,174.4 56.76,-174.4 h 183.47 l -148.65,-108.9 z m 445.1,-925.4 h 183.5 l -148.39,-92.8 56.53,-166.3 -148.14,111.6 -148.63,-105.8 56.55,159.6 -148.13,93.7 h 183.2 l 33.79,117.1 23.22,72.3 23.04,-72.9 z m 1080.58,0 h 183.46 l -148.38,-92.8 56.78,-166.3 -148.63,111.6 -148.62,-105.8 57.06,159.6 -148.66,93.7 h 183.69 l 33.48,117.1 23.05,72.3 23.13,-72.9 z m 1172.2,516.8 -148.41,108.8 -148.38,-107.1 56.78,162.8 -137.66,88.7 h 172.5 l 56.76,174.5 56.77,-174.5 h 172.73 l -137.64,-88.4 z m 543.8,-358.4 -148.63,105.8 -148.41,-108.7 56.79,170.2 -148.36,104.3 h 183.45 l 56.53,174.4 57.01,-174.4 h 183.22 l -148.13,-104.8 z M 8740,11305.1 V 12620 c -30,5.1 -117.54,-18 -192.77,39.4 -7.16,0 -8.4,0.8 -15.62,1.1 -100.2,4.4 -189.97,-1.1 -285.9,-1.1 -33.23,0 -65.33,-14.3 -99.74,-14.3 -17.94,0 -35.54,-4.9 -53.74,-4.4 l 44.83,-140.7 h 183.22 l -148.13,-108.5 56.53,-175.3 -148.63,108 -148.41,-108.3 56.79,175.7 -148.36,108.4 h 183.45 l 40.43,147.8 c 1.17,0 2.34,4.9 3.5,4.8 l -0.17,17.4 h -152.65 c -87.5,0 -175.63,19.6 -261.55,33.7 l 14.74,-41.6 17.06,-54 -72.52,52 -75.89,54.7 -75.89,-55.2 -72.49,-52.8 17.1,52.6 28.12,73.4 c -3.29,0.7 -6.76,-5.2 -10.06,-4.5 -243.82,50.7 -501.18,77.8 -753.32,118.9 l -122.17,-77.3 39.65,-110.5 17.13,-52.7 -72.61,52.7 -76.02,55 -76.01,-55 -72.61,-52.7 17.21,52.7 39.85,122.3 -148.66,108.3 h 183.69 l 9.57,16 c -11.87,2.5 -23.87,-2.1 -35.68,0.6 -52.18,11.7 -110.36,29.5 -160.61,37.6 -58.62,9.3 -120.13,10.7 -178.04,22.6 -51.45,10.5 -100.78,33.9 -162.27,46.8 -17.24,3.5 -35.22,6 -53,8.9 l -48.55,-35.6 13.51,41.4 c -84.44,13.3 -171.95,24.4 -250.83,48.6 -53.11,16.5 -90.81,38.4 -146.03,56 -39.29,12.4 -196.99,65.4 -341.47,112.2 l -115.79,-83.9 56.81,-174.5 -148.39,108.2 -6.19,-4.5 c 1.91,-41.9 2.86,-84.1 5.94,-126.9 -87.94,-17.4 -72.22,-71.7 -69.61,-147.6 -40.01,-27.4 -94.08,-43 -143.22,-56.5 -10.23,31.5 -18.13,27 -17.12,68.3 l 84.3,-4.1 c 9.81,21.6 29.85,41.5 30.8,60.3 1.16,19 -5.95,24.5 -14.3,32.1 -10.55,9.8 -3.08,2.4 -16,10.8 l -11.34,6.9 c 10.67,39.5 23.99,52.9 52.34,76.2 l 9.51,8.3 c -1.91,0.9 -4.3,2.1 -6.37,3 -9.03,4.2 -19.28,9.2 -31.08,15.4 -98.33,51.8 -279.09,165.3 -324.99,183.8 -19.29,-12.4 -24.79,-20 -42.93,-34.6 4.56,-72.9 16.49,-145 22.69,-226 2.71,-36.2 6.21,-69.8 9.37,-69.8 h 164.6 l -148.13,-108.3 39.45,-119.2 17.06,-48.9 -72.59,56.4 h -43.03 c 0.34,0 1.02,-10.4 1.45,-13 -1.03,-0.5 -2.06,-11.9 -3.25,-12.6 0,-4.5 0.65,-24.4 1.8,-24.4 h 4.69 c 11.61,-30 36.53,-59.7 53.38,-74.7 l -80.53,-4.1 c -6.66,-58.4 -26.24,-153.3 -40.74,-212.4 -9.77,-40.7 -26.23,-31.1 -48.2,-60.2 -53.38,-71 -54.71,-78.6 -65.93,-138.6 h 87.81 l 56.55,174 57.01,-174 h 183.2 l -148.13,-139.8 3.47,-39.9 53.04,-152 -148.59,113.4 -148.4,-117.6 53.25,153.9 3.53,23.6 -71.17,45.3 c -10.21,-17.3 -24.52,-11.7 -41.01,-69.1 -29.22,0 -63.67,-79.4 -87.19,-128.5 -17.96,-37.5 -33.53,-89.3 -47.49,-89.3 h 41.94 l -60.95,-45.4 -0.62,-1.6 -86.79,-63 30.23,-93.6 0.08,0.2 26.21,-81.4 -39.71,24.6 c -15.61,-72.9 -11.13,-107.4 -7.73,-164.8 3.59,-57.3 5.86,-91.6 -19.14,-180.1 -14.25,-49.8 -0.47,-62.5 -4,-110.3 -12.87,-12 -22.84,-21.5 -32.05,-28.2 l 11.01,-36.4 h 183.46 l -148.36,-104.8 56.52,-172.4 -148.14,108.6 -24.27,-24.5 c 18.75,-30.7 31.76,-49.4 39.51,-118.2 13.44,-57.4 11.56,-142.7 -5.14,-201.3 l -27.64,-38.1 c 15,-36.3 34.33,-44.1 48.86,-84.9 14.54,-41.8 21.39,-94.4 39.73,-94.4 h 168.93 l -148.36,-132.2 26.99,-107.8 h 0.18 l 4.45,-6.6 c 4.06,-4.8 7.58,-12.8 12.2,-18 33.63,8.7 27.63,4.6 45.27,24.6 h 0.34 l 0.65,1 0.51,-1 h 0.25 c 18.83,-60 22.75,-34.5 19.97,-80 l -34.79,-4.7 c -14.03,-191 -19.06,-167.1 85.32,-267.7 59.32,-56.9 3.1,-74 -12.66,-118.3 -9.13,-25.3 15.07,-149.3 47.54,-169.3 H 8740 v 645.2 654.2 z"
         id="path2024" />
    </clipPath>
    <linearGradient
       x1="0"
       y1="0"
       x2="1"
       y2="0"
       gradientUnits="userSpaceOnUse"
       gradientTransform="matrix(5005.99,0,0,-5005.99,3734.01,11292.5)"
       spreadMethod="pad"
       id="linearGradient2038">
      <stop
         style="stop-opacity:1;stop-color:#1a1d40"
         offset="0"
         id="stop2028" />
      <stop
         style="stop-opacity:1;stop-color:#1a1d40"
         offset="0.252747"
         id="stop2030" />
      <stop
         style="stop-opacity:1;stop-color:#161721"
         offset="0.598901"
         id="stop2032" />
      <stop
         style="stop-opacity:1;stop-color:#283779"
         offset="0.906593"
         id="stop2034" />
      <stop
         style="stop-opacity:1;stop-color:#1f2144"
         offset="1"
         id="stop2036" />
    </linearGradient>
    <clipPath
       clipPathUnits="userSpaceOnUse"
       id="clipPath2000">
      <path
         d="m 15928,13514.6 c -16.4,22.5 -32.2,30 -62.5,40.2 -108.6,36.2 -112.9,-53.5 -194.6,-108.2 l -85.6,45.7 c -17.6,-58.5 -31,-122.3 -41.5,-172.3 h 482.1 c -26.2,50 -65.2,149.6 -97.9,194.6 z"
         id="path1998" />
    </clipPath>
    <linearGradient
       x1="0"
       y1="0"
       x2="1"
       y2="0"
       gradientUnits="userSpaceOnUse"
       gradientTransform="matrix(24040,0,0,-24040,236.274,13441.6)"
       spreadMethod="pad"
       id="linearGradient2016">
      <stop
         style="stop-opacity:1;stop-color:#431417"
         offset="0"
         id="stop2002" />
      <stop
         style="stop-opacity:1;stop-color:#431417"
         offset="0.0989011"
         id="stop2004" />
      <stop
         style="stop-opacity:1;stop-color:#c61e25"
         offset="0.307692"
         id="stop2006" />
      <stop
         style="stop-opacity:1;stop-color:#85171c"
         offset="0.417582"
         id="stop2008" />
      <stop
         style="stop-opacity:1;stop-color:#85171c"
         offset="0.813187"
         id="stop2010" />
      <stop
         style="stop-opacity:1;stop-color:#cf1e25"
         offset="0.956044"
         id="stop2012" />
      <stop
         style="stop-opacity:1;stop-color:#cf1e25"
         offset="1"
         id="stop2014" />
    </linearGradient>
    <clipPath
       clipPathUnits="userSpaceOnUse"
       id="clipPath1974">
      <path
         d="m 11359.1,11950 h 1040.7 c 16.2,40 26.7,45.8 52.6,72.2 l 161.6,-40.1 c 25.9,61.6 41.8,54.8 88.1,47.9 77.7,-11.5 9.5,72.2 -48.6,114.9 -24.8,-13.1 -52.4,-27.5 -89.6,-31.2 -52.7,-5.5 -27,6 -67.9,29.4 -4.7,31.6 1.3,52 -10.6,76.2 -24.4,6.9 -32.1,-21.6 -76,-33.7 -35.9,-9.8 -67.8,-11.4 -95.5,-30.5 -36.4,-24.6 -95.5,-96 -135.4,-108.4 -71.7,-22.2 -135.5,37.2 -179.4,64.1 -77.2,47.7 -90.6,53 -185.1,24.1 -13.6,126.5 57.6,127 95,202.1 -91.1,-25.6 -151,-84.3 -214.1,-143 -63.8,-58.8 -111.4,-126.9 -197,-167.4 -86.8,-41.2 -129.7,-36.6 -138.8,-76.6 z"
         id="path1972" />
    </clipPath>
    <linearGradient
       x1="0"
       y1="0"
       x2="1"
       y2="0"
       gradientUnits="userSpaceOnUse"
       gradientTransform="matrix(24040,0,0,-24040,236.245,12143.5)"
       spreadMethod="pad"
       id="linearGradient1990">
      <stop
         style="stop-opacity:1;stop-color:#431417"
         offset="0"
         id="stop1976" />
      <stop
         style="stop-opacity:1;stop-color:#431417"
         offset="0.0989011"
         id="stop1978" />
      <stop
         style="stop-opacity:1;stop-color:#c61e25"
         offset="0.307692"
         id="stop1980" />
      <stop
         style="stop-opacity:1;stop-color:#85171c"
         offset="0.417582"
         id="stop1982" />
      <stop
         style="stop-opacity:1;stop-color:#85171c"
         offset="0.813187"
         id="stop1984" />
      <stop
         style="stop-opacity:1;stop-color:#cf1e25"
         offset="0.956044"
         id="stop1986" />
      <stop
         style="stop-opacity:1;stop-color:#cf1e25"
         offset="1"
         id="stop1988" />
    </linearGradient>
    <clipPath
       clipPathUnits="userSpaceOnUse"
       id="clipPath1948">
      <path
         d="m 15400.6,12670 c -0.1,-50 -0.2,-39 -0.3,-41.6 0.1,-0.1 0.1,-3.3 0.1,-4.9 -119.6,1.4 -198.8,-89.7 -290.3,-121.2 -52.5,-18.1 -99,-40.4 -146.8,-59 -119.5,-46.7 -231.1,-26.2 -357.8,-232 -45.1,-73.5 -2.2,-126.1 -40.1,-157.3 -49.8,-41.2 -52.6,-4 -77.4,-104 h 1311.4 c 4.6,40 11.4,35 21.9,47.4 -58.4,47.3 -96.1,76.3 -57,181.8 49.8,134.4 226.2,337.3 247.3,447.2 1.8,9 2.1,-16.4 1.9,43.6 z"
         id="path1946" />
    </clipPath>
    <linearGradient
       x1="0"
       y1="0"
       x2="1"
       y2="0"
       gradientUnits="userSpaceOnUse"
       gradientTransform="matrix(24040,0,0,-24040,236.25,12310)"
       spreadMethod="pad"
       id="linearGradient1964">
      <stop
         style="stop-opacity:1;stop-color:#431417"
         offset="0"
         id="stop1950" />
      <stop
         style="stop-opacity:1;stop-color:#431417"
         offset="0.0989011"
         id="stop1952" />
      <stop
         style="stop-opacity:1;stop-color:#c61e25"
         offset="0.307692"
         id="stop1954" />
      <stop
         style="stop-opacity:1;stop-color:#85171c"
         offset="0.417582"
         id="stop1956" />
      <stop
         style="stop-opacity:1;stop-color:#85171c"
         offset="0.813187"
         id="stop1958" />
      <stop
         style="stop-opacity:1;stop-color:#cf1e25"
         offset="0.956044"
         id="stop1960" />
      <stop
         style="stop-opacity:1;stop-color:#cf1e25"
         offset="1"
         id="stop1962" />
    </linearGradient>
    <clipPath
       clipPathUnits="userSpaceOnUse"
       id="clipPath1922">
      <path
         d="m 15400.3,12623.1 c 0,0.3 0,-2.5 0,0 z"
         id="path1920" />
    </clipPath>
    <linearGradient
       x1="0"
       y1="0"
       x2="1"
       y2="0"
       gradientUnits="userSpaceOnUse"
       gradientTransform="matrix(312.5,0,0,-312.5,15244,12622.6)"
       spreadMethod="pad"
       id="linearGradient1938">
      <stop
         style="stop-opacity:1;stop-color:#431417"
         offset="0"
         id="stop1924" />
      <stop
         style="stop-opacity:1;stop-color:#431417"
         offset="0.0989011"
         id="stop1926" />
      <stop
         style="stop-opacity:1;stop-color:#c61e25"
         offset="0.307692"
         id="stop1928" />
      <stop
         style="stop-opacity:1;stop-color:#85171c"
         offset="0.417582"
         id="stop1930" />
      <stop
         style="stop-opacity:1;stop-color:#85171c"
         offset="0.813187"
         id="stop1932" />
      <stop
         style="stop-opacity:1;stop-color:#cf1e25"
         offset="0.956044"
         id="stop1934" />
      <stop
         style="stop-opacity:1;stop-color:#cf1e25"
         offset="1"
         id="stop1936" />
    </linearGradient>
    <clipPath
       clipPathUnits="userSpaceOnUse"
       id="clipPath1896">
      <path
         d="m 11295.4,11976.2 -3.6,84.6 c -56.6,10.1 -131,-59.9 -217.6,-45.6 -20.6,3.6 -10.9,0.6 -22.8,10.8 9.5,35.7 -5,-4.1 28.3,25.7 5.8,5 16.1,19.4 22.4,28.5 12.5,17.9 28.9,42.4 42,59.5 28.3,38.2 66.2,90 93.4,116.8 35.1,35.1 67,73.5 111.3,98.6 77,43.5 62.9,6.1 125.1,82.4 -40,29.6 -134.4,27.4 -190.9,25.8 -75.3,-2.2 -112.9,-22.7 -176.3,-34.2 -43.4,48.5 -87.5,62.3 -157.5,81.6 -14.3,-17.1 -16.7,-31.2 -35.8,-37.9 -12.4,17.4 -10.1,30 -19.3,54.6 -2.3,6.4 -7.4,17.3 -10.5,23.6 l -9.1,17.1 c -0.4,3.1 -2.1,3.8 -3.3,5.8 -163.7,-34.3 -251.2,23.5 -420.5,14 -5.9,19.7 -14,22.1 -22.6,82.1 h -152.6 c -2.9,0 -5.7,-19.9 -9.3,-20.9 -56.5,-15.2 -122.3,-33 -185.2,-29.7 -156.07,8.8 -246.76,-6.4 -393.38,-19.2 -311.61,-27.4 -617.62,-1.5 -947.62,19.8 v -670 h 2531.5 c 6,40 13.5,21.4 23.9,26.2 z"
         id="path1894" />
    </clipPath>
    <linearGradient
       x1="0"
       y1="0"
       x2="1"
       y2="0"
       gradientUnits="userSpaceOnUse"
       gradientTransform="matrix(24183.8,0,0,-24183.8,169.063,12310)"
       spreadMethod="pad"
       id="linearGradient1912">
      <stop
         style="stop-opacity:1;stop-color:#431417"
         offset="0"
         id="stop1898" />
      <stop
         style="stop-opacity:1;stop-color:#431417"
         offset="0.0989011"
         id="stop1900" />
      <stop
         style="stop-opacity:1;stop-color:#c61e25"
         offset="0.307692"
         id="stop1902" />
      <stop
         style="stop-opacity:1;stop-color:#85171c"
         offset="0.417582"
         id="stop1904" />
      <stop
         style="stop-opacity:1;stop-color:#85171c"
         offset="0.813187"
         id="stop1906" />
      <stop
         style="stop-opacity:1;stop-color:#cf1e25"
         offset="0.956044"
         id="stop1908" />
      <stop
         style="stop-opacity:1;stop-color:#cf1e25"
         offset="1"
         id="stop1910" />
    </linearGradient>
    <clipPath
       clipPathUnits="userSpaceOnUse"
       id="clipPath1870">
      <path
         d="m 13818.8,11084.2 c -30,-32.4 -55.1,-53.8 -86.2,-84.5 -41.7,-41.1 -132.6,-128.4 -190.7,-159.6 -37.7,-20.1 -82.9,-29.5 -123.3,-51.6 -42.6,-23.9 -73.3,-47.5 -109.3,-69.6 -60.8,18.5 -108,43.2 -177.8,61.3 8,74.1 23.2,101.5 41.8,162.8 15.9,52.9 15.9,108.7 31.6,157.8 12.9,18.6 60.1,8.3 81.5,18.8 11.8,44.2 -25.9,130.4 -51.9,170.4 h -890.2 c 6.8,0 29,-50.7 44.4,-87.4 16.7,-38.8 30.3,-88.7 40.3,-133.9 41.2,-188.4 17.2,-298.7 -94.3,-438.7 h 2980.7 c 45.3,140 69.4,339.2 53.6,377.6 -55.3,11.7 -82.3,-2.1 -84.6,70.6 -1.7,46.7 18.3,80.2 39.5,111.9 29.8,44.4 61.5,99.9 97.9,99.9 H 14032 c -72.1,-40 -158,-146 -213.2,-205.8 z"
         id="path1868" />
    </clipPath>
    <linearGradient
       x1="0"
       y1="0"
       x2="1"
       y2="0"
       gradientUnits="userSpaceOnUse"
       gradientTransform="matrix(24040,0,0,-24040,236.25,10960)"
       spreadMethod="pad"
       id="linearGradient1886">
      <stop
         style="stop-opacity:1;stop-color:#431417"
         offset="0"
         id="stop1872" />
      <stop
         style="stop-opacity:1;stop-color:#431417"
         offset="0.0989011"
         id="stop1874" />
      <stop
         style="stop-opacity:1;stop-color:#c61e25"
         offset="0.307692"
         id="stop1876" />
      <stop
         style="stop-opacity:1;stop-color:#85171c"
         offset="0.417582"
         id="stop1878" />
      <stop
         style="stop-opacity:1;stop-color:#85171c"
         offset="0.813187"
         id="stop1880" />
      <stop
         style="stop-opacity:1;stop-color:#cf1e25"
         offset="0.956044"
         id="stop1882" />
      <stop
         style="stop-opacity:1;stop-color:#cf1e25"
         offset="1"
         id="stop1884" />
    </linearGradient>
    <clipPath
       clipPathUnits="userSpaceOnUse"
       id="clipPath1844">
      <path
         d="m 12140.9,10811.2 c -1.2,95.9 6,76.5 -28.6,149.6 -17.8,37.9 -28.8,70.8 -31.7,118.2 -4.8,77.3 5.7,171 21.3,211 H 8740 v -660 h 3462 c -36.6,80 -60.5,107.2 -61.1,181.2 z"
         id="path1842" />
    </clipPath>
    <linearGradient
       x1="0"
       y1="0"
       x2="1"
       y2="0"
       gradientUnits="userSpaceOnUse"
       gradientTransform="matrix(24153.4,0,0,-24153.4,179.834,10960)"
       spreadMethod="pad"
       id="linearGradient1860">
      <stop
         style="stop-opacity:1;stop-color:#431417"
         offset="0"
         id="stop1846" />
      <stop
         style="stop-opacity:1;stop-color:#431417"
         offset="0.0989011"
         id="stop1848" />
      <stop
         style="stop-opacity:1;stop-color:#c61e25"
         offset="0.307692"
         id="stop1850" />
      <stop
         style="stop-opacity:1;stop-color:#85171c"
         offset="0.417582"
         id="stop1852" />
      <stop
         style="stop-opacity:1;stop-color:#85171c"
         offset="0.813187"
         id="stop1854" />
      <stop
         style="stop-opacity:1;stop-color:#cf1e25"
         offset="0.956044"
         id="stop1856" />
      <stop
         style="stop-opacity:1;stop-color:#cf1e25"
         offset="1"
         id="stop1858" />
    </linearGradient>
    <clipPath
       clipPathUnits="userSpaceOnUse"
       id="clipPath1818">
      <path
         d="m 15293.4,9592.5 -22.3,-63.2 c -36.8,2.8 -66.6,15.1 -104,10.7 -50.9,-6.2 -37.6,-26.8 -96,-29.4 l -6.5,90.9 c 44.5,-4.9 55.6,-8.1 95.4,10.2 23.8,11.2 69.5,21.2 89.1,34.8 -50.3,105.1 1.9,94.9 -37.4,153.3 -46.7,68.9 -49.8,52.1 -136.6,45 -28.1,-2.4 -52.8,-4.5 -73.9,11.9 31,35.8 24.1,27 76.5,14.8 -15,48.4 -46.7,38.1 -63.1,69.3 12.1,27.4 -4.3,3.1 19.3,24.4 5.7,5 15.1,2.8 23.8,10.4 -1.9,3.9 -4.4,4.4 -7.5,4.4 H 8740 v -640 h 6390.3 c 11.8,0 25.1,30.2 38.7,54.1 133.2,-65.6 206.9,101.6 160.4,171.4 -16.4,24.7 -7.6,17 -36,27 z"
         id="path1816" />
    </clipPath>
    <linearGradient
       x1="0"
       y1="0"
       x2="1"
       y2="0"
       gradientUnits="userSpaceOnUse"
       gradientTransform="matrix(24099.3,0,0,-24099.3,198.965,9660)"
       spreadMethod="pad"
       id="linearGradient1834">
      <stop
         style="stop-opacity:1;stop-color:#431417"
         offset="0"
         id="stop1820" />
      <stop
         style="stop-opacity:1;stop-color:#431417"
         offset="0.0989011"
         id="stop1822" />
      <stop
         style="stop-opacity:1;stop-color:#c61e25"
         offset="0.307692"
         id="stop1824" />
      <stop
         style="stop-opacity:1;stop-color:#85171c"
         offset="0.417582"
         id="stop1826" />
      <stop
         style="stop-opacity:1;stop-color:#85171c"
         offset="0.813187"
         id="stop1828" />
      <stop
         style="stop-opacity:1;stop-color:#cf1e25"
         offset="0.956044"
         id="stop1830" />
      <stop
         style="stop-opacity:1;stop-color:#cf1e25"
         offset="1"
         id="stop1832" />
    </linearGradient>
    <clipPath
       clipPathUnits="userSpaceOnUse"
       id="clipPath1792">
      <path
         d="m 14312.8,8133.9 c 38.2,18.4 46,21.4 83.1,48.3 139.5,101.1 284.9,347.8 355.4,527.8 H 4462.37 c 33.66,-90 60.14,-133.7 115.79,-160.6 48.58,-23.8 82.16,-10.1 102.01,-57.7 25.23,-60.9 4.02,-57.6 74.34,-72.8 149.59,-32.1 171.21,-278.9 186.57,-368.9 h 9361.72 c 5.3,0 9.4,50 10,83.9 z"
         id="path1790" />
    </clipPath>
    <linearGradient
       x1="0"
       y1="0"
       x2="1"
       y2="0"
       gradientUnits="userSpaceOnUse"
       gradientTransform="matrix(24040,0,0,-24040,236.25,8380)"
       spreadMethod="pad"
       id="linearGradient1808">
      <stop
         style="stop-opacity:1;stop-color:#431417"
         offset="0"
         id="stop1794" />
      <stop
         style="stop-opacity:1;stop-color:#431417"
         offset="0.0989011"
         id="stop1796" />
      <stop
         style="stop-opacity:1;stop-color:#c61e25"
         offset="0.307692"
         id="stop1798" />
      <stop
         style="stop-opacity:1;stop-color:#85171c"
         offset="0.417582"
         id="stop1800" />
      <stop
         style="stop-opacity:1;stop-color:#85171c"
         offset="0.813187"
         id="stop1802" />
      <stop
         style="stop-opacity:1;stop-color:#cf1e25"
         offset="0.956044"
         id="stop1804" />
      <stop
         style="stop-opacity:1;stop-color:#cf1e25"
         offset="1"
         id="stop1806" />
    </linearGradient>
    <clipPath
       clipPathUnits="userSpaceOnUse"
       id="clipPath1766">
      <path
         d="m 11980,6794.2 c -2.1,-15.9 -3.2,-27.1 -3.2,-35.2 0,8 1.1,19.2 3.2,35.2 z m -283.7,-71.4 c -2,37.4 -30.7,59.3 -44.2,99.5 l 0.9,-0.2 c 13.9,-38.9 41.4,-62 43.3,-99.3 z M 14528,6923 c 5.2,3.3 -3.8,15.4 33.4,7.5 7.6,-1.5 8.9,-3.4 8.9,-4.5 1,1.2 4.5,-5 14.7,1 -104.2,140.5 -230.3,223 -283.8,423 H 6375.32 l 69.92,-47.3 c 45.05,-30.6 192.51,-29.9 256.47,-36.3 180.07,-18.4 359.06,-42.9 538.04,-58.1 l 18.34,141.9 460.89,-36.6 c 33.09,-58.5 27.68,-72.3 78.18,-127.4 48.9,-53.6 202.04,-158 231.63,-197.8 11.43,-15.4 1.88,1.7 8.55,-17.3 l 25.97,-56.7 c 18.15,-26.5 12.38,-55.3 22.91,-94.7 11.17,-41.4 33.77,-109.7 64.1,-139.7 h 2971.38 112.6 251 c 5.1,30 16.4,42.8 64.4,82.8 l 143.2,-68.8 -143.2,66.7 c -48,-40 -59.3,-50.7 -64.4,-80.7 h 248.3 310.3 97.1 168.9 c -45.3,30 -119.2,51.5 -138,116.8 18.1,52.7 35.5,41 80.7,61.8 12.8,35.1 6.3,38.6 -10.2,62.8 l -135.2,-14 -5.8,47.4 -44.9,3.7 -15.5,-31.5 -107.4,-0.8 c -17.4,22.4 -35.8,40.8 -46,67.8 22.1,6.6 42.4,14 66,23.8 47.4,19 36.7,22.5 72.3,0.9 176.8,-106.2 187,46.6 278.8,58.2 138.9,17.9 153.1,-41.9 230.4,65.4 0.9,1.4 2.6,3.5 3.5,4.6 1,1.6 2.7,4.2 3.3,5.1 0.8,0.9 2.2,3.3 3.4,5 57.2,-54.1 56,-79.3 160.9,-52.2 54.3,14.3 31.2,29.4 48.8,67 l 336.2,-4.6 c 76.6,-6.2 99.4,-34.6 150.9,-84.5 95.8,-93.2 164.6,9.9 245,41.9 l -1,56.9 158.7,8.6 101.8,-141.3 c 54.8,-52.9 106,-50.3 171.8,-88.2 107.7,-62 65,-190.6 70.8,-280.6 h 680.4 c -45,90 -93.7,163.8 -141.6,243 z"
         id="path1764" />
    </clipPath>
    <linearGradient
       x1="0"
       y1="0"
       x2="1"
       y2="0"
       gradientUnits="userSpaceOnUse"
       gradientTransform="matrix(24040,0,0,-24040,236.25,7015.1)"
       spreadMethod="pad"
       id="linearGradient1782">
      <stop
         style="stop-opacity:1;stop-color:#431417"
         offset="0"
         id="stop1768" />
      <stop
         style="stop-opacity:1;stop-color:#431417"
         offset="0.0989011"
         id="stop1770" />
      <stop
         style="stop-opacity:1;stop-color:#c61e25"
         offset="0.307692"
         id="stop1772" />
      <stop
         style="stop-opacity:1;stop-color:#85171c"
         offset="0.417582"
         id="stop1774" />
      <stop
         style="stop-opacity:1;stop-color:#85171c"
         offset="0.813187"
         id="stop1776" />
      <stop
         style="stop-opacity:1;stop-color:#cf1e25"
         offset="0.956044"
         id="stop1778" />
      <stop
         style="stop-opacity:1;stop-color:#cf1e25"
         offset="1"
         id="stop1780" />
    </linearGradient>
    <clipPath
       clipPathUnits="userSpaceOnUse"
       id="clipPath1740">
      <path
         d="m 14570.3,6926 c -0.9,-1.1 0,-0.9 0,0 z"
         id="path1738" />
    </clipPath>
    <linearGradient
       x1="0"
       y1="0"
       x2="1"
       y2="0"
       gradientUnits="userSpaceOnUse"
       gradientTransform="matrix(3203.13,0,0,-3203.13,12968.3,6925.6)"
       spreadMethod="pad"
       id="linearGradient1756">
      <stop
         style="stop-opacity:1;stop-color:#431417"
         offset="0"
         id="stop1742" />
      <stop
         style="stop-opacity:1;stop-color:#431417"
         offset="0.0989011"
         id="stop1744" />
      <stop
         style="stop-opacity:1;stop-color:#c61e25"
         offset="0.307692"
         id="stop1746" />
      <stop
         style="stop-opacity:1;stop-color:#85171c"
         offset="0.417582"
         id="stop1748" />
      <stop
         style="stop-opacity:1;stop-color:#85171c"
         offset="0.813187"
         id="stop1750" />
      <stop
         style="stop-opacity:1;stop-color:#cf1e25"
         offset="0.956044"
         id="stop1752" />
      <stop
         style="stop-opacity:1;stop-color:#cf1e25"
         offset="1"
         id="stop1754" />
    </linearGradient>
    <clipPath
       clipPathUnits="userSpaceOnUse"
       id="clipPath1714">
      <path
         d="m 14490.8,6003 c 53.8,-58.8 80.7,-47.4 149.6,-84.8 -14.7,-49.1 -2.1,-5.2 -20.2,-21.7 -11.7,-10.5 -5.3,16.5 -22.9,-26.4 33.2,-7.7 113.7,4.6 143.8,15.1 33,42.8 55.2,94.8 69,134.8 h -339.9 c 7,0 13.3,-9.2 20.6,-17 z"
         id="path1712" />
    </clipPath>
    <linearGradient
       x1="0"
       y1="0"
       x2="1"
       y2="0"
       gradientUnits="userSpaceOnUse"
       gradientTransform="matrix(24040,0,0,-24040,236.25,5943.8)"
       spreadMethod="pad"
       id="linearGradient1730">
      <stop
         style="stop-opacity:1;stop-color:#431417"
         offset="0"
         id="stop1716" />
      <stop
         style="stop-opacity:1;stop-color:#431417"
         offset="0.0989011"
         id="stop1718" />
      <stop
         style="stop-opacity:1;stop-color:#c61e25"
         offset="0.307692"
         id="stop1720" />
      <stop
         style="stop-opacity:1;stop-color:#85171c"
         offset="0.417582"
         id="stop1722" />
      <stop
         style="stop-opacity:1;stop-color:#85171c"
         offset="0.813187"
         id="stop1724" />
      <stop
         style="stop-opacity:1;stop-color:#cf1e25"
         offset="0.956044"
         id="stop1726" />
      <stop
         style="stop-opacity:1;stop-color:#cf1e25"
         offset="1"
         id="stop1728" />
    </linearGradient>
    <clipPath
       clipPathUnits="userSpaceOnUse"
       id="clipPath1688">
      <path
         d="m 9429.44,6014.1 h 12.21 c -3.77,3.3 -7.69,6.8 -11.94,10.9 z"
         id="path1686" />
    </clipPath>
    <linearGradient
       x1="0"
       y1="0"
       x2="1"
       y2="0"
       gradientUnits="userSpaceOnUse"
       gradientTransform="matrix(24040,0,0,-24040,236.25,6019.5)"
       spreadMethod="pad"
       id="linearGradient1704">
      <stop
         style="stop-opacity:1;stop-color:#431417"
         offset="0"
         id="stop1690" />
      <stop
         style="stop-opacity:1;stop-color:#431417"
         offset="0.0989011"
         id="stop1692" />
      <stop
         style="stop-opacity:1;stop-color:#c61e25"
         offset="0.307692"
         id="stop1694" />
      <stop
         style="stop-opacity:1;stop-color:#85171c"
         offset="0.417582"
         id="stop1696" />
      <stop
         style="stop-opacity:1;stop-color:#85171c"
         offset="0.813187"
         id="stop1698" />
      <stop
         style="stop-opacity:1;stop-color:#cf1e25"
         offset="0.956044"
         id="stop1700" />
      <stop
         style="stop-opacity:1;stop-color:#cf1e25"
         offset="1"
         id="stop1702" />
    </linearGradient>
    <clipPath
       clipPathUnits="userSpaceOnUse"
       id="clipPath1662">
      <path
         d="m 10115.1,5501.7 c 41.2,132.4 -73.6,179.1 -46.3,263.7 13.1,40 13.6,62.9 16.5,106.4 l -54.1,14.2 1.8,34.2 60.4,-9.5 c -1.7,45.2 -0.2,59.6 19.5,94.6 l -34.6,14.7 h -636.65 c 36.66,-30 50.67,-34.2 63.41,-104.8 13.09,-73.3 75.05,-223.3 106.48,-278.9 75.54,-133.9 304.29,-76 413.46,-165.7 44.6,-37 88.2,-27.6 144.4,-6.1 -14.4,26 -34.8,22.2 -54.3,37.2 z"
         id="path1660" />
    </clipPath>
    <linearGradient
       x1="0"
       y1="0"
       x2="1"
       y2="0"
       gradientUnits="userSpaceOnUse"
       gradientTransform="matrix(24040,0,0,-24040,236.221,5732.8)"
       spreadMethod="pad"
       id="linearGradient1678">
      <stop
         style="stop-opacity:1;stop-color:#431417"
         offset="0"
         id="stop1664" />
      <stop
         style="stop-opacity:1;stop-color:#431417"
         offset="0.0989011"
         id="stop1666" />
      <stop
         style="stop-opacity:1;stop-color:#c61e25"
         offset="0.307692"
         id="stop1668" />
      <stop
         style="stop-opacity:1;stop-color:#85171c"
         offset="0.417582"
         id="stop1670" />
      <stop
         style="stop-opacity:1;stop-color:#85171c"
         offset="0.813187"
         id="stop1672" />
      <stop
         style="stop-opacity:1;stop-color:#cf1e25"
         offset="0.956044"
         id="stop1674" />
      <stop
         style="stop-opacity:1;stop-color:#cf1e25"
         offset="1"
         id="stop1676" />
    </linearGradient>
  </defs>
  <g
     inkscape:label="Layer 1"
     inkscape:groupmode="layer"
     id="layer1"
     transform="translate(17.869411,-55.353513)">
    <g
       id="g2355">
      <path
         id="path73-4"
         style="fill:#ffffff;fill-opacity:1;stroke:#ffffff;stroke-width:3.565;stroke-linecap:round;stroke-linejoin:round;stroke-miterlimit:4;stroke-dasharray:none;stroke-opacity:1;filter:url(#filter3374)"
         d="m 32.654054,58.340559 c -0.981969,0.0164 -2.095243,0.0821 -2.618962,0.27854 -1.047435,0.39279 -4.582194,3.79704 -5.629629,7.85585 -1.047437,4.05881 -2.61873,9.81969 1.178221,17.28266 3.796951,7.46297 10.736297,17.020811 10.736297,18.722891 0,1.70208 0.654507,7.85533 -3.142443,10.73578 -3.796954,2.88045 -14.533102,9.95072 -20.555852,10.73629 -6.022751,0.78558 -13.35455134,3.66626 -14.9257038,0.91675 0,0 0.3928363,-2.22613 -1.832963,-1.57149 -2.2257997,0.65465 -8.1180382,2.4879 -9.4273322,3.79719 -1.309294,1.3093 -2.094493,2.095 -0.261483,3.14244 1.833012,1.04743 7.7245905,-0.52362 13.48548256,-0.78548 5.76089234,-0.26186 13.87863844,0.13065 24.74577644,-6.28489 10.867138,-6.41554 10.867035,-7.07036 10.867035,-7.07036 0,0 -0.131027,6.93938 2.225704,7.46311 2.356728,0.52371 7.463203,0.78575 10.998295,-1.57097 3.535095,-2.35673 7.593851,-4.18992 7.593851,-4.18992 0,0 -0.392977,5.368 3.011186,7.98659 3.404166,2.61859 9.034074,-3.01119 9.034076,-3.01119 l 14.79496,-13.35474 c 0,0 1.833105,-0.39274 0.654741,1.04748 -1.178364,1.44023 -7.462734,9.42696 -6.28437,12.56926 1.178364,3.14231 1.70175,5.89177 5.629629,4.71341 3.927883,-1.17837 12.307777,-7.85585 12.307777,-7.85585 0,0 3.927641,3.14216 6.284373,2.61844 2.35673,-0.52371 4.71359,-2.6182 4.58266,-3.14192 -0.13093,-0.52372 -5.76088,-1.17874 -5.76088,-1.17874 0,0 -0.654602,0.39273 1.04748,-2.48771 1.70208,-2.88045 2.74937,-6.41543 2.61844,-7.98659 -0.13093,-1.57115 -4.189924,1.70222 -4.189924,1.70222 0,0 -6.415577,7.98679 -11.129036,10.7363 -4.713457,2.74952 -5.367864,3.01113 -6.28437,1.9637 -0.916507,-1.04744 -1.04725,-0.3925 1.309481,-3.79666 2.356728,-3.40417 7.462594,-13.09326 7.462591,-13.09326 0,0 -5.367959,0.5239 -5.498888,-0.13074 -0.130929,-0.65465 -0.392507,-6.546371 -0.916223,-6.546371 -0.523719,0 -1.83315,-1.57125 -6.022888,0.78548 -4.18974,2.356731 -4.058666,4.713411 -4.058666,4.713411 0,0 2.618399,5.49893 1.570964,6.54636 -1.047435,1.04744 -12.831165,10.86737 -13.616742,10.9983 -0.785577,0.13093 -2.487374,0.1306 -2.356445,-1.57148 0.130929,-1.70209 0.130506,-3.53486 2.094447,-6.28437 1.963941,-2.74952 7.725159,-10.34347 7.332369,-11.12904 -0.392787,-0.78557 0.392837,-1.57124 -1.832965,-0.65474 -2.225796,0.91651 -2.488075,1.8332 -3.666442,-0.13074 -1.178364,-1.963941 -2.487419,-4.321041 -4.844148,-2.618961 -2.356728,1.702081 -2.487705,1.833481 -2.487705,1.833481 0,0 4.32095,2.22561 3.404444,5.89163 -0.916506,3.66602 -3.404444,4.84415 -3.404444,4.84415 l -13.616739,7.72511 c 0,0 -2.618398,1.43999 -3.011185,-0.91674 -0.392788,-2.35673 -0.523907,-4.05867 3.011185,-6.93911 3.535093,-2.88045 11.260294,-8.51064 11.260294,-9.55808 0,-1.04743 -0.523719,-2.487421 -1.440223,-1.9637 -0.916503,0.52372 -11.783774,6.41563 -11.783774,6.41563 0,0 -3.273136,-10.474291 -5.106148,-13.354741 -1.83301,-2.88045 -8.117994,-12.30764 -8.379852,-16.36644 -0.261858,-4.05882 2.356869,-11.12909 3.142446,-12.17652 0.785571,-1.04744 -0.392838,3.40425 0.392739,3.53518 0.785577,0.13093 3.142443,-1.44008 3.142443,-4.05866 v -5.76089 c 0,0 -0.850992,-0.0329 -1.832962,-0.0165 z m 83.149956,29.89533 c -0.55548,0 -1.16332,0.46855 -1.5105,1.09348 -0.46291,0.83323 0.55563,1.85163 1.01854,2.96261 0.4629,1.11097 -1.57406,0.093 -1.57406,0.093 l -2.68459,-1.20354 c 0,0 -0.0928,3.33284 -0.37052,4.25865 -0.27774,0.92581 3.24033,1.20355 5.3697,1.20355 2.12936,0 2.68515,-2.03679 3.24063,-4.16616 0.55549,-2.12936 -2.31454,-3.61074 -2.96262,-4.07365 -0.16201,-0.11572 -0.34142,-0.16795 -0.52658,-0.16795 z m 38.80022,0.971 c -0.75512,0.013 -1.79679,0.5855 -1.79679,0.5855 0,0 -5.46254,6.29588 -6.85126,8.51782 -1.38871,2.221951 -3.42502,7.313761 -3.51762,8.517311 -0.0926,1.20355 1.85128,0.74042 2.77709,-0.92604 0.92581,-1.66646 2.12959,-3.88813 2.12959,-3.88813 0,0 2.40687,-3.147831 5.6472,-6.480741 0,0 -0.27768,0.46302 1.11104,-0.74053 1.38871,-1.20355 1.66653,-4.72163 1.11105,-5.3697 -0.13888,-0.16201 -0.3586,-0.21983 -0.6103,-0.21549 z m 29.27314,0.57309 c -1.833,0 -4.7134,0.91675 -4.7134,0.91675 0,0 -22.12738,10.081551 -24.61504,11.521771 -2.48766,1.44023 -6.93911,7.98659 -6.93911,7.98659 0,0 1.70221,1.17827 7.46311,3.66593 5.76089,2.48765 10.47448,0.9164 16.10445,7.98659 5.62996,7.07018 -2.7e-4,9.42737 -9.16534,16.23571 -9.16505,6.80833 -56.95414,3.53466 -56.95414,3.53466 0,0 -37.05302,-2.88011 -57.216143,-4.18941 -20.163123,-1.30929 -27.233524,1.04726 -29.721182,1.57097 -2.487658,0.52372 -2.749187,3.27318 -2.749187,3.27318 0,0 6.022559,2.48771 7.331852,2.48771 1.309293,0 3.666301,-2.74966 4.844666,-3.14245 1.178364,-0.39279 17.54419,0.26195 25.792742,0.65474 8.248546,0.39279 78.265602,4.8177 90.671462,4.9103 12.40586,0.0926 22.12712,-6.85117 29.5336,-12.31346 7.40649,-5.46228 1.94401,-14.07258 -0.37052,-17.59066 -2.31452,-3.51808 -17.59045,-7.31381 -19.62723,-7.86929 -2.03678,-0.55549 0.18506,-1.85134 2.49959,-3.88813 2.31452,-2.03678 11.75799,-5.555001 16.47962,-7.591791 4.72163,-2.03678 13.42398,-5.4622 13.42398,-5.4622 l 0.41393,-0.60254 c 0,0 -0.65469,-2.09497 -2.48771,-2.09497 z m -161.053724,5.38211 -1.018542,0.55552 c -1.203555,0.4629 -1.296045,0.64802 -1.296045,0.64802 0,0 -9.813826,12.498381 -10.461893,13.794511 -0.6480668,1.29614 -1.3884665,3.88844 -1.4810463,4.72167 -0.092581,0.83323 1.5741343,1.20383 2.6851073,0.27802 1.110972,-0.92581 12.405444,-16.664611 12.405444,-16.664611 0,0 0.09279,-0.92603 -0.833025,-3.33313 z M 131.62682,101.3953 c -0.80719,-0.007 -1.64082,0.0855 -2.42776,0.24753 -3.14776,0.64806 -8.05428,2.96264 -9.25783,3.51813 -1.20355,0.55549 -6.20324,4.99918 -6.20324,4.99918 0,0 -0.64789,0.92597 -2.59209,5.18469 -1.9442,4.25873 0.18513,5.27733 3.61063,8.70283 3.4255,3.4255 4.07364,1.75883 6.48074,0.83303 2.40711,-0.92582 8.88764,-5.46207 11.47992,-8.60982 2.59226,-3.14776 3.51813,-7.77683 3.51813,-11.29491 0,-2.63857 -2.18693,-3.55896 -4.6085,-3.58066 z m -0.55862,3.17293 c 0.77245,-0.006 1.27899,0.38421 1.27899,1.42575 0,3.33292 0.92581,5.46264 -4.16616,9.72137 -5.09194,4.25873 -9.9062,7.59162 -11.29491,4.81418 -1.38872,-2.77743 -1.57403,-4.72191 -1.01855,-5.64772 l 0.83303,-0.92552 c 0,0 5.46262,-4.62928 7.9623,-6.29574 1.71854,-1.14569 4.70591,-3.0789 6.4053,-3.09232 z" />
      <path
         id="path73"
         style="fill:#220000;fill-opacity:1;stroke:#220000;stroke-width:0.999999px;stroke-linecap:butt;stroke-linejoin:miter;stroke-opacity:1"
         d="m 131.63086,210.74414 c -3.71138,0.0619 -7.91903,0.31046 -9.89844,1.05274 -3.95881,1.48456 -17.31853,14.35102 -21.27734,29.6914 -3.958815,15.34039 -9.897562,37.11379 4.45312,65.32031 14.35068,28.20651 40.57813,64.3306 40.57813,70.76368 0,6.43305 2.47373,29.68943 -11.87695,40.57617 -14.35069,10.88674 -54.928258,37.609 -77.691411,40.57812 -22.763154,2.96909 -50.4738956,13.85673 -56.41210962,3.46485 0,0 1.48473557,-8.41372 -6.92773438,-5.93946 -8.41247,2.47427 -30.682347,9.40307 -35.630859,14.35157 -4.948513,4.94853 -7.916197,7.91812 -0.988282,11.87695 6.927917,3.95879 29.195299,-1.97904 50.9687504,-2.96875 21.7734516,-0.98971 52.4546966,0.4938 93.5273456,-23.75391 41.07265,-24.24771 41.07226,-26.72265 41.07226,-26.72265 0,0 -0.49522,26.22761 8.41211,28.20703 8.90732,1.97941 28.20738,2.96979 41.56836,-5.9375 13.36099,-8.90733 28.70117,-15.83594 28.70117,-15.83594 0,0 -1.48527,20.28851 11.38086,30.18555 12.86614,9.89703 34.14453,-11.38086 34.14454,-11.38086 l 55.91796,-50.47461 c 0,0 6.92827,-1.48437 2.47461,3.95898 -4.45366,5.44339 -28.20561,35.62945 -23.75195,47.50586 4.45366,11.87645 6.43181,22.2681 21.27734,17.81445 14.84554,-4.45368 46.51758,-29.6914 46.51758,-29.6914 0,0 14.84463,11.8759 23.75196,9.89648 8.90732,-1.97937 17.81516,-9.89558 17.32031,-11.875 -0.49486,-1.97941 -21.77344,-4.45508 -21.77344,-4.45508 0,0 -2.47407,1.48436 3.95898,-9.40234 6.43306,-10.88674 10.39134,-24.2473 9.89649,-30.18555 -0.49485,-5.9382 -15.83594,6.4336 -15.83594,6.4336 0,0 -24.24785,30.18627 -42.0625,40.57812 -17.81464,10.39189 -20.28799,11.38067 -23.75195,7.42188 -3.46396,-3.95883 -3.95811,-1.48346 4.94922,-14.34961 8.90732,-12.86612 28.20508,-49.48633 28.20507,-49.48633 0,0 -20.28835,1.98009 -20.7832,-0.49414 -0.49485,-2.47427 -1.48349,-24.74219 -3.46289,-24.74219 -1.97941,0 -6.92844,-5.93857 -22.76367,2.96875 -15.83524,8.90732 -15.33984,17.81446 -15.33984,17.81446 0,0 9.89631,20.78339 5.9375,24.74218 -3.95881,3.95883 -48.49574,41.07351 -51.46485,41.56836 -2.96911,0.49486 -9.4011,0.49361 -8.90625,-5.93945 0.49485,-6.4331 0.49325,-13.3601 7.91602,-23.75195 7.42277,-10.39189 29.19745,-39.09342 27.71289,-42.0625 -1.48455,-2.96911 1.48474,-5.93857 -6.92774,-2.47461 -8.41246,3.46396 -9.40375,6.92861 -13.85742,-0.49414 -4.45366,-7.42278 -9.40127,-16.33151 -18.30859,-9.89844 -8.90732,6.43306 -9.40235,6.92969 -9.40235,6.92969 0,0 16.33115,8.41175 12.86719,22.26757 -3.46396,13.85583 -12.86719,18.3086 -12.86719,18.3086 l -51.46484,29.19726 c 0,0 -9.89631,5.44249 -11.38086,-3.46484 -1.48455,-8.90733 -1.98012,-15.33986 11.38086,-26.22656 13.36098,-10.88674 42.55859,-32.16618 42.55859,-36.125 0,-3.95881 -1.97941,-9.40128 -5.44336,-7.42188 -3.46395,1.97941 -44.5371,24.24805 -44.5371,24.24805 0,0 -12.37091,-39.58788 -19.29883,-50.47461 -6.92791,-10.88672 -30.68218,-46.51704 -31.67188,-61.85742 -0.9897,-15.34039 8.90785,-42.06268 11.87696,-46.02149 2.96909,-3.95881 -1.48474,12.86648 1.48437,13.36133 2.96911,0.49485 11.87695,-5.44282 11.87695,-15.33984 v -21.77344 c 0,0 -3.21635,-0.12436 -6.92773,-0.0625 z m 314.26758,112.99024 c -2.09948,0 -4.39683,1.77089 -5.70899,4.13281 -1.74958,3.14921 2.10003,6.99831 3.84961,11.19726 1.74955,4.19895 -5.94922,0.35157 -5.94922,0.35157 l -10.14648,-4.54883 c 0,0 -0.35063,12.59657 -1.40039,16.0957 -1.04973,3.49912 12.24691,4.54883 20.29492,4.54883 8.04798,0 10.1486,-7.69811 12.24805,-15.7461 2.09949,-8.04798 -8.74787,-13.64692 -11.19727,-15.39648 -0.61235,-0.43739 -1.29041,-0.63477 -1.99023,-0.63476 z m 146.64648,3.66992 c -2.85398,0.0492 -6.79101,2.21289 -6.79101,2.21289 0,0 -20.64583,23.79546 -25.89453,32.19336 -5.24867,8.3979 -12.94494,27.64255 -13.29493,32.1914 -0.34991,4.54885 6.99697,2.79843 10.4961,-3.5 3.49912,-6.29843 8.04883,-14.69531 8.04883,-14.69531 -10e-6,0 9.09683,-11.89728 21.34374,-24.49414 10e-6,0 -1.04948,1.75003 4.19922,-2.79883 5.24867,-4.54886 6.29867,-17.84553 4.19922,-20.29492 -0.52487,-0.61235 -1.35531,-0.83086 -2.30664,-0.81445 z m 110.63867,2.16601 c -6.92791,0 -17.81445,3.46485 -17.81445,3.46485 0,0 -83.63102,38.10351 -93.0332,43.54687 -9.40218,5.44339 -26.22656,30.18555 -26.22656,30.18555 0,0 6.43355,4.45329 28.20703,13.85547 21.77344,9.40214 39.58856,3.46357 60.86718,30.18554 21.27859,26.72194 -10e-4,35.63101 -34.64062,61.36329 -34.63956,25.73227 -215.25977,13.35937 -215.25977,13.35937 0,0 -140.04292,-10.88545 -216.25,-15.83398 -76.20708,-4.9485 -102.929856,3.95812 -112.332028,5.9375 -9.402172,1.97941 -10.390625,12.37109 -10.390625,12.37109 0,0 22.762425,9.40234 27.710937,9.40234 4.948509,0 13.856886,-10.39239 18.310546,-11.87695 4.45366,-1.48456 66.30875,0.99005 97.48438,2.47461 31.17561,1.48456 295.80702,18.20861 342.69531,18.55859 46.88829,0.34995 83.63005,-25.89418 111.62305,-46.53906 27.99303,-20.64484 7.34743,-53.18769 -1.40039,-66.48437 -8.7478,-13.29668 -66.48358,-27.64274 -74.18165,-29.74219 -7.69806,-2.09949 0.69944,-6.99721 9.44727,-14.69531 8.74779,-7.69807 44.43963,-20.99528 62.28516,-28.69336 17.84556,-7.69809 50.73632,-20.64454 50.73632,-20.64454 l 1.56446,-2.27734 c 0,0 -2.47443,-7.91797 -9.40235,-7.91797 z m -608.707028,20.3418 -3.849609,2.09961 c -4.548869,1.74956 -4.898437,2.44922 -4.898437,2.44922 0,0 -37.091629,47.23796 -39.541016,52.13672 -2.449387,4.89879 -5.247748,14.69648 -5.597656,17.8457 -0.349913,3.14922 5.949484,4.54991 10.148437,1.05078 4.19895,-3.49912 46.886719,-62.98437 46.886719,-62.98437 0,0 0.350687,-3.49993 -3.148438,-12.59766 z M 505.70117,373.4707 c -3.05079,-0.0273 -6.20153,0.3232 -9.17578,0.93555 -11.89705,2.44939 -30.44138,11.1974 -34.99023,13.29687 -4.54885,2.09949 -23.44532,18.89454 -23.44532,18.89454 0,0 -2.44871,3.49975 -9.79687,19.5957 -7.34816,16.09599 0.69971,19.94581 13.64648,32.89258 12.94677,12.94677 15.39644,6.64755 24.49414,3.14844 9.09774,-3.49913 33.59108,-20.64401 43.38868,-32.54102 9.79751,-11.89705 13.29687,-29.39277 13.29687,-42.68945 0,-9.97252 -8.26558,-13.45119 -17.41797,-13.53321 z m -2.11133,11.99219 c 2.9195,-0.0231 4.83399,1.45215 4.83399,5.38867 0,12.59687 3.49911,20.6462 -15.7461,36.74219 -19.24516,16.09599 -37.44078,28.69272 -42.68945,18.19531 -5.2487,-10.49737 -5.94906,-17.84658 -3.84961,-21.3457 l 3.14844,-3.49805 c 0,0 20.64614,-17.49649 30.09375,-23.79492 6.49526,-4.33017 17.78609,-11.63676 24.20898,-11.6875 z"
         transform="scale(0.26458333)" />
    </g>
  </g>
</svg>
